<mxfile host="app.diagrams.net" agent="Mozilla/5.0 (Windows NT 10.0; Win64; x64; rv:134.0) Gecko/20100101 Firefox/134.0" version="26.0.14">
  <diagram name="Page-1" id="iZ50_ZKtr36XQ8jao6-T">
    <mxGraphModel dx="880" dy="434" grid="1" gridSize="10" guides="1" tooltips="1" connect="1" arrows="1" fold="1" page="1" pageScale="1" pageWidth="850" pageHeight="1100" math="0" shadow="0">
      <root>
        <mxCell id="0" />
        <mxCell id="1" parent="0" />
        <mxCell id="i10GY2b0_4Jb4vzUvBVZ-25" style="edgeStyle=orthogonalEdgeStyle;rounded=0;orthogonalLoop=1;jettySize=auto;html=1;entryX=0;entryY=0.5;entryDx=0;entryDy=0;" edge="1" parent="1" source="i10GY2b0_4Jb4vzUvBVZ-22" target="i10GY2b0_4Jb4vzUvBVZ-23">
          <mxGeometry relative="1" as="geometry" />
        </mxCell>
        <mxCell id="i10GY2b0_4Jb4vzUvBVZ-22" value="START" style="rounded=0;whiteSpace=wrap;html=1;" vertex="1" parent="1">
          <mxGeometry x="20" y="20" width="120" height="60" as="geometry" />
        </mxCell>
        <mxCell id="i10GY2b0_4Jb4vzUvBVZ-28" value="" style="edgeStyle=orthogonalEdgeStyle;rounded=0;orthogonalLoop=1;jettySize=auto;html=1;" edge="1" parent="1" source="i10GY2b0_4Jb4vzUvBVZ-23" target="i10GY2b0_4Jb4vzUvBVZ-26">
          <mxGeometry relative="1" as="geometry">
            <Array as="points">
              <mxPoint x="280" y="110" />
              <mxPoint x="45" y="110" />
            </Array>
          </mxGeometry>
        </mxCell>
        <mxCell id="i10GY2b0_4Jb4vzUvBVZ-30" style="edgeStyle=orthogonalEdgeStyle;rounded=0;orthogonalLoop=1;jettySize=auto;html=1;entryX=0;entryY=0.5;entryDx=0;entryDy=0;" edge="1" parent="1" source="i10GY2b0_4Jb4vzUvBVZ-23" target="i10GY2b0_4Jb4vzUvBVZ-27">
          <mxGeometry relative="1" as="geometry" />
        </mxCell>
        <mxCell id="i10GY2b0_4Jb4vzUvBVZ-23" value="&lt;div&gt;App&lt;/div&gt;&lt;div&gt;Installed?&lt;br&gt;&lt;/div&gt;" style="rhombus;whiteSpace=wrap;html=1;" vertex="1" parent="1">
          <mxGeometry x="240" y="10" width="80" height="80" as="geometry" />
        </mxCell>
        <mxCell id="i10GY2b0_4Jb4vzUvBVZ-29" style="edgeStyle=orthogonalEdgeStyle;rounded=0;orthogonalLoop=1;jettySize=auto;html=1;entryX=0;entryY=0.5;entryDx=0;entryDy=0;" edge="1" parent="1" source="i10GY2b0_4Jb4vzUvBVZ-26" target="i10GY2b0_4Jb4vzUvBVZ-46">
          <mxGeometry relative="1" as="geometry">
            <mxPoint x="140" y="160" as="targetPoint" />
          </mxGeometry>
        </mxCell>
        <mxCell id="i10GY2b0_4Jb4vzUvBVZ-26" value="YES" style="ellipse;whiteSpace=wrap;html=1;aspect=fixed;" vertex="1" parent="1">
          <mxGeometry x="20" y="135" width="50" height="50" as="geometry" />
        </mxCell>
        <mxCell id="i10GY2b0_4Jb4vzUvBVZ-32" style="edgeStyle=orthogonalEdgeStyle;rounded=0;orthogonalLoop=1;jettySize=auto;html=1;entryX=0;entryY=0.5;entryDx=0;entryDy=0;" edge="1" parent="1" source="i10GY2b0_4Jb4vzUvBVZ-27" target="i10GY2b0_4Jb4vzUvBVZ-31">
          <mxGeometry relative="1" as="geometry" />
        </mxCell>
        <mxCell id="i10GY2b0_4Jb4vzUvBVZ-27" value="NO" style="ellipse;whiteSpace=wrap;html=1;aspect=fixed;" vertex="1" parent="1">
          <mxGeometry x="375" y="25" width="50" height="50" as="geometry" />
        </mxCell>
        <mxCell id="i10GY2b0_4Jb4vzUvBVZ-37" style="edgeStyle=orthogonalEdgeStyle;rounded=0;orthogonalLoop=1;jettySize=auto;html=1;entryX=0;entryY=0.5;entryDx=0;entryDy=0;" edge="1" parent="1" source="i10GY2b0_4Jb4vzUvBVZ-31" target="i10GY2b0_4Jb4vzUvBVZ-35">
          <mxGeometry relative="1" as="geometry" />
        </mxCell>
        <mxCell id="i10GY2b0_4Jb4vzUvBVZ-41" value="" style="edgeStyle=orthogonalEdgeStyle;rounded=0;orthogonalLoop=1;jettySize=auto;html=1;" edge="1" parent="1" source="i10GY2b0_4Jb4vzUvBVZ-31" target="i10GY2b0_4Jb4vzUvBVZ-40">
          <mxGeometry relative="1" as="geometry" />
        </mxCell>
        <mxCell id="i10GY2b0_4Jb4vzUvBVZ-31" value="&lt;div&gt;Installer&lt;br&gt;&lt;/div&gt;&lt;div&gt;Installed?&lt;br&gt;&lt;/div&gt;" style="rhombus;whiteSpace=wrap;html=1;" vertex="1" parent="1">
          <mxGeometry x="495" y="10" width="80" height="80" as="geometry" />
        </mxCell>
        <mxCell id="i10GY2b0_4Jb4vzUvBVZ-39" value="" style="edgeStyle=orthogonalEdgeStyle;rounded=0;orthogonalLoop=1;jettySize=auto;html=1;" edge="1" parent="1" source="i10GY2b0_4Jb4vzUvBVZ-35" target="i10GY2b0_4Jb4vzUvBVZ-38">
          <mxGeometry relative="1" as="geometry" />
        </mxCell>
        <mxCell id="i10GY2b0_4Jb4vzUvBVZ-35" value="NO" style="ellipse;whiteSpace=wrap;html=1;aspect=fixed;" vertex="1" parent="1">
          <mxGeometry x="645" y="25" width="50" height="50" as="geometry" />
        </mxCell>
        <mxCell id="i10GY2b0_4Jb4vzUvBVZ-36" value="YES" style="ellipse;whiteSpace=wrap;html=1;aspect=fixed;" vertex="1" parent="1">
          <mxGeometry x="725" y="60" width="50" height="50" as="geometry" />
        </mxCell>
        <mxCell id="i10GY2b0_4Jb4vzUvBVZ-42" value="" style="edgeStyle=orthogonalEdgeStyle;rounded=0;orthogonalLoop=1;jettySize=auto;html=1;" edge="1" parent="1" source="i10GY2b0_4Jb4vzUvBVZ-38" target="i10GY2b0_4Jb4vzUvBVZ-40">
          <mxGeometry relative="1" as="geometry" />
        </mxCell>
        <mxCell id="i10GY2b0_4Jb4vzUvBVZ-38" value="&lt;div&gt;Install Installer&amp;nbsp;&lt;/div&gt;&lt;div&gt;&amp;amp; files from github&lt;/div&gt;" style="rounded=0;whiteSpace=wrap;html=1;" vertex="1" parent="1">
          <mxGeometry x="610" y="130" width="120" height="60" as="geometry" />
        </mxCell>
        <mxCell id="i10GY2b0_4Jb4vzUvBVZ-45" value="" style="edgeStyle=orthogonalEdgeStyle;rounded=0;orthogonalLoop=1;jettySize=auto;html=1;" edge="1" parent="1" source="i10GY2b0_4Jb4vzUvBVZ-40" target="i10GY2b0_4Jb4vzUvBVZ-44">
          <mxGeometry relative="1" as="geometry" />
        </mxCell>
        <mxCell id="i10GY2b0_4Jb4vzUvBVZ-40" value="YES" style="ellipse;whiteSpace=wrap;html=1;aspect=fixed;" vertex="1" parent="1">
          <mxGeometry x="510" y="135" width="50" height="50" as="geometry" />
        </mxCell>
        <mxCell id="i10GY2b0_4Jb4vzUvBVZ-47" value="" style="edgeStyle=orthogonalEdgeStyle;rounded=0;orthogonalLoop=1;jettySize=auto;html=1;" edge="1" parent="1" source="i10GY2b0_4Jb4vzUvBVZ-44" target="i10GY2b0_4Jb4vzUvBVZ-46">
          <mxGeometry relative="1" as="geometry" />
        </mxCell>
        <mxCell id="i10GY2b0_4Jb4vzUvBVZ-44" value="&lt;div&gt;Use Install Wizard&lt;/div&gt;&lt;div&gt;To install App&lt;br&gt;&lt;/div&gt;" style="rounded=0;whiteSpace=wrap;html=1;" vertex="1" parent="1">
          <mxGeometry x="340" y="130" width="120" height="60" as="geometry" />
        </mxCell>
        <mxCell id="i10GY2b0_4Jb4vzUvBVZ-65" value="" style="edgeStyle=orthogonalEdgeStyle;rounded=0;orthogonalLoop=1;jettySize=auto;html=1;" edge="1" parent="1" source="i10GY2b0_4Jb4vzUvBVZ-46" target="i10GY2b0_4Jb4vzUvBVZ-49">
          <mxGeometry relative="1" as="geometry" />
        </mxCell>
        <mxCell id="i10GY2b0_4Jb4vzUvBVZ-46" value="Application start" style="rounded=0;whiteSpace=wrap;html=1;" vertex="1" parent="1">
          <mxGeometry x="100" y="130" width="120" height="60" as="geometry" />
        </mxCell>
        <mxCell id="i10GY2b0_4Jb4vzUvBVZ-48" value="MENU" style="swimlane;horizontal=0;whiteSpace=wrap;html=1;" vertex="1" parent="1">
          <mxGeometry x="90" y="215" width="120" height="140" as="geometry" />
        </mxCell>
        <mxCell id="i10GY2b0_4Jb4vzUvBVZ-51" value="&lt;div&gt;Encryption&lt;/div&gt;&lt;div&gt;Types&amp;nbsp;&lt;/div&gt;&lt;div&gt;1 to 3+&lt;br&gt;&lt;/div&gt;" style="text;html=1;align=center;verticalAlign=middle;resizable=0;points=[];autosize=1;strokeColor=#6c8ebf;fillColor=#dae8fc;" vertex="1" parent="i10GY2b0_4Jb4vzUvBVZ-48">
          <mxGeometry x="30" y="70" width="80" height="60" as="geometry" />
        </mxCell>
        <mxCell id="i10GY2b0_4Jb4vzUvBVZ-49" value="Homepage" style="text;html=1;align=center;verticalAlign=middle;resizable=0;points=[];autosize=1;strokeColor=#6c8ebf;fillColor=#dae8fc;" vertex="1" parent="i10GY2b0_4Jb4vzUvBVZ-48">
          <mxGeometry x="25" y="25" width="90" height="30" as="geometry" />
        </mxCell>
        <mxCell id="i10GY2b0_4Jb4vzUvBVZ-53" value="&lt;div&gt;Blurbs about&amp;nbsp;&lt;/div&gt;&lt;div&gt;application info&lt;/div&gt;" style="rounded=1;whiteSpace=wrap;html=1;" vertex="1" parent="1">
          <mxGeometry x="230" y="235" width="110" height="40" as="geometry" />
        </mxCell>
        <mxCell id="i10GY2b0_4Jb4vzUvBVZ-55" value="" style="edgeStyle=orthogonalEdgeStyle;rounded=0;orthogonalLoop=1;jettySize=auto;html=1;" edge="1" parent="1" source="i10GY2b0_4Jb4vzUvBVZ-49" target="i10GY2b0_4Jb4vzUvBVZ-53">
          <mxGeometry relative="1" as="geometry" />
        </mxCell>
        <mxCell id="i10GY2b0_4Jb4vzUvBVZ-66" value="Per type of encryption" style="swimlane;whiteSpace=wrap;html=1;startSize=23;" vertex="1" parent="1">
          <mxGeometry x="370" y="215" width="360" height="245" as="geometry" />
        </mxCell>
        <mxCell id="i10GY2b0_4Jb4vzUvBVZ-74" value="" style="swimlane;startSize=0;" vertex="1" parent="i10GY2b0_4Jb4vzUvBVZ-66">
          <mxGeometry x="10" y="30" width="340" height="60" as="geometry" />
        </mxCell>
        <mxCell id="i10GY2b0_4Jb4vzUvBVZ-69" value="Encryption" style="text;html=1;align=center;verticalAlign=middle;resizable=0;points=[];autosize=1;fillColor=#dae8fc;strokeColor=#6c8ebf;" vertex="1" parent="i10GY2b0_4Jb4vzUvBVZ-74">
          <mxGeometry x="10" y="15" width="80" height="30" as="geometry" />
        </mxCell>
        <mxCell id="i10GY2b0_4Jb4vzUvBVZ-72" value="Decryption" style="text;html=1;align=center;verticalAlign=middle;resizable=0;points=[];autosize=1;fillColor=#dae8fc;strokeColor=#6c8ebf;" vertex="1" parent="i10GY2b0_4Jb4vzUvBVZ-74">
          <mxGeometry x="105" y="15" width="80" height="30" as="geometry" />
        </mxCell>
        <mxCell id="i10GY2b0_4Jb4vzUvBVZ-79" value="" style="swimlane;startSize=0;" vertex="1" parent="i10GY2b0_4Jb4vzUvBVZ-66">
          <mxGeometry x="10" y="100" width="340" height="60" as="geometry" />
        </mxCell>
        <mxCell id="i10GY2b0_4Jb4vzUvBVZ-82" value="Small stats blurb ( may possibly be cut in final product )" style="rounded=1;whiteSpace=wrap;html=1;" vertex="1" parent="i10GY2b0_4Jb4vzUvBVZ-79">
          <mxGeometry x="5" y="10" width="325" height="40" as="geometry" />
        </mxCell>
        <mxCell id="i10GY2b0_4Jb4vzUvBVZ-87" value="" style="swimlane;startSize=0;" vertex="1" parent="i10GY2b0_4Jb4vzUvBVZ-66">
          <mxGeometry x="10" y="175" width="340" height="60" as="geometry" />
        </mxCell>
        <mxCell id="i10GY2b0_4Jb4vzUvBVZ-88" value="&lt;div&gt;EXPLANATION OF ENCRYPTION&amp;nbsp;&lt;/div&gt;&lt;div&gt;+ MORE&lt;/div&gt;" style="rounded=1;whiteSpace=wrap;html=1;" vertex="1" parent="i10GY2b0_4Jb4vzUvBVZ-87">
          <mxGeometry x="5" y="10" width="325" height="40" as="geometry" />
        </mxCell>
      </root>
    </mxGraphModel>
  </diagram>
</mxfile>
